<?xml version="1.0" standalone="no"?>
<!DOCTYPE svg PUBLIC "-//W3C//DTD SVG 20010904//EN"
 "http://www.w3.org/TR/2001/REC-SVG-20010904/DTD/svg10.dtd">
<svg version="1.0" xmlns="http://www.w3.org/2000/svg"
 width="460.000000pt" height="460.000000pt" viewBox="0 0 460.000000 460.000000"
 preserveAspectRatio="xMidYMid meet">
<metadata>
Created by potrace 1.16, written by Peter Selinger 2001-2019
</metadata>
<g transform="translate(0.000000,460.000000) scale(0.100000,-0.100000)"
fill="#000000" stroke="none">
<path d="M0 2300 l0 -2300 1440 0 1440 0 43 27 c23 15 44 30 47 33 3 4 34 21
70 39 70 37 132 76 195 126 22 17 69 44 105 59 159 69 190 90 190 124 0 11
-12 60 -26 108 -14 49 -27 113 -28 142 -2 48 -1 52 18 46 25 -7 -47 62 -199
189 -229 192 -416 400 -517 577 -31 52 -72 124 -93 159 -71 121 -145 288 -150
344 -6 49 -5 51 11 32 19 -23 20 -31 -15 120 -23 100 -26 231 -8 282 l12 32
41 -27 c23 -15 88 -65 145 -111 129 -104 225 -168 264 -176 23 -5 26 -4 15 4
-8 6 -11 11 -7 11 4 0 -25 35 -66 78 -41 42 -98 105 -126 139 -28 34 -55 64
-61 68 -5 3 -15 15 -20 25 -10 18 -8 19 15 10 34 -13 34 -13 28 9 -6 23 20 32
56 19 13 -5 42 -10 65 -13 22 -2 64 -6 91 -9 28 -3 43 -3 35 0 -8 4 -17 10
-20 14 -3 4 -34 25 -70 45 -161 94 -266 202 -317 325 -29 70 -29 92 0 125 30
35 97 43 146 18 29 -15 39 -30 60 -89 14 -38 34 -82 44 -97 16 -26 22 -27 97
-27 43 0 82 -4 85 -10 3 -5 -2 -10 -12 -10 -10 0 -42 -8 -71 -18 l-52 -19 30
-41 c38 -53 138 -126 210 -153 44 -17 71 -20 136 -17 96 5 161 33 241 103 57
50 85 56 107 23 15 -25 19 -78 5 -78 -5 0 -8 -6 -6 -12 1 -7 -33 -30 -77 -51
-43 -21 -76 -40 -74 -43 3 -2 38 1 79 7 41 6 80 11 87 12 6 0 12 5 12 10 0 5
7 6 16 3 8 -3 12 -2 9 4 -5 9 15 15 38 11 4 -1 21 6 37 14 25 13 30 13 44 0 8
-8 21 -15 28 -15 8 0 19 -5 25 -11 14 -14 9 59 -8 106 -11 30 -11 38 0 44 8 5
11 17 6 30 -10 32 4 45 27 25 19 -18 19 -17 8 10 -18 48 -44 90 -65 106 -38
29 -125 122 -125 133 0 7 5 4 11 -5 13 -23 30 -23 22 0 -5 14 -3 13 11 -3 16
-19 16 -18 10 26 -4 35 -2 48 11 59 15 12 19 11 37 -10 l20 -25 -6 27 c-6 26
-5 27 23 17 15 -5 33 -21 39 -34 8 -17 17 -23 32 -20 12 2 24 -3 30 -15 7 -13
18 -17 40 -14 25 4 32 1 41 -20 7 -14 16 -23 21 -20 4 3 6 9 3 14 -3 4 13 -1
36 -11 30 -15 44 -17 54 -9 9 8 14 6 19 -5 3 -9 10 -14 15 -10 6 3 13 -1 18
-9 10 -18 44 -16 60 4 11 13 12 13 13 0 1 -10 4 -8 10 5 8 19 8 19 17 -4 8
-21 11 -22 16 -7 4 10 12 14 18 10 6 -3 15 0 20 7 7 11 9 10 9 -5 0 -14 5 -17
23 -12 12 3 28 6 35 6 6 0 12 10 13 23 0 20 1 20 8 3 7 -18 8 -18 14 -2 4 10
7 27 7 39 0 21 2 20 25 -7 14 -16 25 -24 25 -18 0 13 28 42 41 42 5 0 9 -9 9
-19 0 -30 17 -34 35 -9 l17 23 -5 -22 c-3 -13 -1 -23 4 -23 5 0 9 347 9 845
l0 845 -909 0 -909 0 -6 -22 c-11 -44 -5 -395 9 -533 21 -195 42 -322 45 -270
2 36 4 33 16 -30 15 -76 13 -111 -4 -55 l-10 35 -1 -32 -1 -32 -91 4 c-51 2
-94 7 -98 12 -3 5 -19 14 -35 21 -28 13 -29 13 -23 80 11 125 48 397 68 495
12 61 33 125 55 168 20 38 39 82 44 97 4 15 11 35 15 45 7 16 -63 17 -1379 17
l-1386 0 0 -2300z m2745 1325 c138 -46 144 -50 172 -115 15 -33 30 -57 35 -54
11 7 71 -122 63 -136 -4 -6 -17 -10 -28 -9 -12 1 -40 -1 -62 -4 -36 -7 -69 -2
-118 18 -13 6 -16 3 -11 -9 5 -13 -1 -16 -32 -17 -109 -4 -208 1 -217 10 -21
21 3 288 29 329 13 19 20 21 57 16 23 -4 74 -17 112 -29z m386 -219 c24 -47
46 -83 50 -80 7 4 19 -19 19 -36 0 -9 -110 -5 -141 5 -17 6 -36 61 -44 124 -5
43 12 60 67 70 3 0 26 -37 49 -83z"/>
<path d="M4150 320 l35 -20 -55 6 -55 7 70 -52 c39 -28 88 -66 111 -85 39 -33
209 -136 224 -136 4 0 15 -9 25 -20 12 -13 31 -20 57 -20 l38 0 0 84 0 85 -47
7 c-49 7 -204 67 -335 128 -81 38 -127 49 -68 16z"/>
</g>
</svg>
